<svg xmlns="http://www.w3.org/2000/svg" viewBox="0 0 1216 442.6666666666667"><title>ESM vs. CJS on npm</title><style>
text { font-size: 24px; font-weight: bolder; font-family: -apple-system,BlinkMacSystemFont,"Segoe UI",Helvetica,Arial,sans-serif,"Apple Color Emoji","Segoe UI Emoji"; font-variant-numeric: tabular-nums; paint-order: stroke; dominant-baseline: middle; }
.b { fill: white; }
.esm { fill: white; }
.dual { fill: url(#a); }
.faux { fill: url(#b); }
.cjs { fill: url(#c); }
.esm, .dual, .faux, .cjs { stroke: #0d1117; stroke-width: 3px; }
text { fill: #0d1117; stroke: white; stroke-width: 3px; }
pattern line { stroke: #0d1117; stroke-width: 2px }
pattern rect { fill: #0d1117 }

@media (prefers-color-scheme: dark) {
  .b { fill: #0d1117; }
  .esm, .dual, .faux, .cjs { stroke: white; }
  .esm { fill: #0d1117; }
  text { fill: white; stroke: #0d1117; }
  pattern line { stroke: white; }
  pattern rect { fill: white }
}
</style><defs><pattern id="a" x="0" y="0" width="6" height="6" patternUnits="userSpaceOnUse"><line x1="0" y1="0" x2="0" y2="6"></line></pattern><pattern id="b" x="0" y="0" width="6" height="6" patternUnits="userSpaceOnUse"><line x1="0" y1="0" x2="6" y2="0"></line></pattern><pattern id="c" x="0" y="0" width="6" height="6" patternUnits="userSpaceOnUse"><rect x="0" y="0" width="1" height="1"></rect></pattern></defs><rect class="b" x="0" y="0" width="1216" height="442.6666666666667"></rect><g><g><rect class="esm" x="32" y="32" height="26.666666666666668" width="58.280220758411964"></rect><rect class="dual" x="90.28022075841196" y="32" height="26.666666666666668" width="16.23642513797401"></rect><rect class="faux" x="106.51664589638597" y="32" height="26.666666666666668" width="142.19690226099343"></rect><rect class="cjs" x="248.7135481573794" y="32" height="26.666666666666668" width="743.2864518426206"></rect><text text-anchor="middle" transform="translate(61.14011037920598, 45.333333333333336) rotate(-45)">6.1%</text><text text-anchor="middle" transform="translate(98.39843332739896, 45.333333333333336) rotate(-45)">1.7%</text><text text-anchor="middle" transform="translate(177.61509702688267, 45.333333333333336)">14.8%</text><text text-anchor="middle" transform="translate(620.3567740786897, 45.333333333333336)">77.4%</text><text x="1024" y="45.333333333333336">2021-08-24</text></g><g><rect class="esm" x="32" y="90.66666666666667" height="26.666666666666668" width="69.87072782008146"></rect><rect class="dual" x="101.87072782008146" y="90.66666666666667" height="26.666666666666668" width="20.230210731361783"></rect><rect class="faux" x="122.10093855144324" y="90.66666666666667" height="26.666666666666668" width="137.5314326190898"></rect><rect class="cjs" x="259.632371170533" y="90.66666666666667" height="26.666666666666668" width="732.367628829467"></rect><text text-anchor="middle" transform="translate(66.93536391004073, 104) rotate(-45)">7.3%</text><text text-anchor="middle" transform="translate(111.98583318576235, 104) rotate(-45)">2.1%</text><text text-anchor="middle" transform="translate(190.86665486098815, 104)">14.3%</text><text text-anchor="middle" transform="translate(625.8161855852666, 104)">76.3%</text><text x="1024" y="104">2021-11-09</text></g><g><rect class="esm" x="32" y="149.33333333333334" height="26.666666666666668" width="74.11888849806542"></rect><rect class="dual" x="106.11888849806542" y="149.33333333333334" height="26.666666666666668" width="25.156524797748858"></rect><rect class="faux" x="131.27541329581427" y="149.33333333333334" height="26.666666666666668" width="136.58811115019347"></rect><rect class="cjs" x="267.8635244460078" y="149.33333333333334" height="26.666666666666668" width="724.1364755539922"></rect><text text-anchor="middle" transform="translate(69.05944424903271, 162.66666666666669) rotate(-45)">7.7%</text><text text-anchor="middle" transform="translate(118.69715089693985, 162.66666666666669) rotate(-45)">2.6%</text><text text-anchor="middle" transform="translate(199.569468870911, 162.66666666666669)">14.2%</text><text text-anchor="middle" transform="translate(629.931762223004, 162.66666666666669)">75.4%</text><text x="1024" y="162.66666666666669">2022-01-27</text></g><g><rect class="esm" x="32" y="208" height="26.666666666666668" width="83.0415068015347"></rect><rect class="dual" x="115.0415068015347" y="208" height="26.666666666666668" width="34.65643529822113"></rect><rect class="faux" x="149.69794209975583" y="208" height="26.666666666666668" width="132.43111266131845"></rect><rect class="cjs" x="282.12905476107426" y="208" height="26.666666666666668" width="709.8709452389257"></rect><text text-anchor="middle" transform="translate(73.52075340076735, 221.33333333333334) rotate(-45)">8.7%</text><text text-anchor="middle" transform="translate(132.36972445064526, 221.33333333333334) rotate(-45)">3.6%</text><text text-anchor="middle" transform="translate(215.91349843041507, 221.33333333333334)">13.8%</text><text text-anchor="middle" transform="translate(637.0645273805371, 221.33333333333334)">73.9%</text><text x="1024" y="221.33333333333334">2022-08-01</text></g><g><rect class="esm" x="32" y="266.66666666666663" height="26.666666666666668" width="86.52862362971985"></rect><rect class="dual" x="118.52862362971985" y="266.66666666666663" height="26.666666666666668" width="36.08143379154342"></rect><rect class="faux" x="154.61005742126326" y="266.66666666666663" height="26.666666666666668" width="131.12928484426658"></rect><rect class="cjs" x="285.73934226552984" y="266.66666666666663" height="26.666666666666668" width="706.2606577344701"></rect><text text-anchor="middle" transform="translate(75.26431181485992, 279.99999999999994) rotate(-45)">9.0%</text><text text-anchor="middle" transform="translate(136.56934052549155, 279.99999999999994) rotate(-45)">3.8%</text><text text-anchor="middle" transform="translate(220.17469984339655, 279.99999999999994)">13.7%</text><text text-anchor="middle" transform="translate(638.8696711327649, 279.99999999999994)">73.6%</text><text x="1024" y="279.99999999999994">2022-11-04</text></g><g><rect class="esm" x="32" y="325.3333333333333" height="26.666666666666668" width="89.61051766639277"></rect><rect class="dual" x="121.61051766639277" y="325.3333333333333" height="26.666666666666668" width="40.230073952341826"></rect><rect class="faux" x="161.8405916187346" y="325.3333333333333" height="26.666666666666668" width="135.04683648315532"></rect><rect class="cjs" x="296.8874281018899" y="325.3333333333333" height="26.666666666666668" width="695.1125718981101"></rect><text text-anchor="middle" transform="translate(76.80525883319638, 338.66666666666663) rotate(-45)">9.3%</text><text text-anchor="middle" transform="translate(141.72555464256368, 338.66666666666663) rotate(-45)">4.2%</text><text text-anchor="middle" transform="translate(229.36400986031225, 338.66666666666663)">14.1%</text><text text-anchor="middle" transform="translate(644.4437140509449, 338.66666666666663)">72.4%</text><text x="1024" y="338.66666666666663">2023-02-06</text></g><g><rect class="esm" x="32" y="384" height="26.666666666666668" width="96"></rect><rect class="dual" x="160" y="384" height="26.666666666666668" width="96"></rect><rect class="faux" x="288" y="384" height="26.666666666666668" width="96"></rect><rect class="cjs" x="416" y="384" height="26.666666666666668" width="96"></rect><text text-anchor="middle" transform="translate(80, 397.3333333333333)">esm</text><text text-anchor="middle" transform="translate(208, 397.3333333333333)">dual</text><text text-anchor="middle" transform="translate(336, 397.3333333333333)">faux</text><text text-anchor="middle" transform="translate(464, 397.3333333333333)">cjs</text></g></g></svg>