<svg xmlns="http://www.w3.org/2000/svg" viewBox="0 0 1216 434.2857142857143"><title>ESM vs. CJS on npm</title>
<style>
text { font-size: 24px; font-weight: bolder; font-family: -apple-system,BlinkMacSystemFont,"Segoe UI",Helvetica,Arial,sans-serif,"Apple Color Emoji","Segoe UI Emoji"; font-variant-numeric: tabular-nums; paint-order: stroke; dominant-baseline: middle; }
.b { fill: white; }
.esm { fill: white; }
.dual { fill: url(#a); }
.faux { fill: url(#b); }
.cjs { fill: url(#c); }
.esm, .dual, .faux, .cjs { stroke: #0d1117; stroke-width: 3px; }
text { fill: #0d1117; stroke: white; stroke-width: 3px; }
pattern line { stroke: #0d1117; stroke-width: 2px }
pattern rect { fill: #0d1117 }

@media (prefers-color-scheme: dark) {
  .b { fill: #0d1117; }
  .esm, .dual, .faux, .cjs { stroke: white; }
  .esm { fill: #0d1117; }
  text { fill: white; stroke: #0d1117; }
  pattern line { stroke: white; }
  pattern rect { fill: white }
}
</style>
<defs>
<pattern id="a" x="0" y="0" width="6" height="6" patternUnits="userSpaceOnUse"><line x1="0" y1="0" x2="0" y2="6"></line></pattern>
<pattern id="b" x="0" y="0" width="6" height="6" patternUnits="userSpaceOnUse"><line x1="0" y1="0" x2="6" y2="0"></line></pattern>
<pattern id="c" x="0" y="0" width="6" height="6" patternUnits="userSpaceOnUse"><rect x="0" y="0" width="1" height="1"></rect></pattern></defs>
<rect class="b" x="0" y="0" width="1216" height="434.2857142857143"></rect>
<g><g>
<rect class="esm" x="32" y="32" height="18.285714285714285" width="58.280220758411964"></rect>
<rect class="dual" x="90.28022075841196" y="32" height="18.285714285714285" width="16.23642513797401"></rect>
<rect class="faux" x="106.51664589638597" y="32" height="18.285714285714285" width="142.19690226099343"></rect>
<rect class="cjs" x="248.7135481573794" y="32" height="18.285714285714285" width="743.2864518426206"></rect>
<text text-anchor="middle" transform="translate(61.14011037920598, 41.14285714285714) rotate(-45)">6.1%</text>
<text text-anchor="middle" transform="translate(98.39843332739896, 41.14285714285714) rotate(-45)">1.7%</text>
<text text-anchor="middle" transform="translate(177.61509702688267, 41.14285714285714)">14.8%</text>
<text text-anchor="middle" transform="translate(620.3567740786897, 41.14285714285714)">77.4%</text>
<text x="1024" y="41.14285714285714">2021-08-24</text>
</g><g>
<rect class="esm" x="32" y="82.28571428571428" height="18.285714285714285" width="69.87072782008146"></rect>
<rect class="dual" x="101.87072782008146" y="82.28571428571428" height="18.285714285714285" width="20.230210731361783"></rect>
<rect class="faux" x="122.10093855144324" y="82.28571428571428" height="18.285714285714285" width="137.5314326190898"></rect>
<rect class="cjs" x="259.632371170533" y="82.28571428571428" height="18.285714285714285" width="732.367628829467"></rect>
<text text-anchor="middle" transform="translate(66.93536391004073, 91.42857142857142) rotate(-45)">7.3%</text>
<text text-anchor="middle" transform="translate(111.98583318576235, 91.42857142857142) rotate(-45)">2.1%</text>
<text text-anchor="middle" transform="translate(190.86665486098815, 91.42857142857142)">14.3%</text>
<text text-anchor="middle" transform="translate(625.8161855852666, 91.42857142857142)">76.3%</text>
<text x="1024" y="91.42857142857142">2021-11-09</text>
</g><g>
<rect class="esm" x="32" y="132.57142857142856" height="18.285714285714285" width="74.11888849806542"></rect>
<rect class="dual" x="106.11888849806542" y="132.57142857142856" height="18.285714285714285" width="25.156524797748858"></rect>
<rect class="faux" x="131.27541329581427" y="132.57142857142856" height="18.285714285714285" width="136.58811115019347"></rect>
<rect class="cjs" x="267.8635244460078" y="132.57142857142856" height="18.285714285714285" width="724.1364755539922"></rect>
<text text-anchor="middle" transform="translate(69.05944424903271, 141.7142857142857) rotate(-45)">7.7%</text>
<text text-anchor="middle" transform="translate(118.69715089693985, 141.7142857142857) rotate(-45)">2.6%</text>
<text text-anchor="middle" transform="translate(199.569468870911, 141.7142857142857)">14.2%</text>
<text text-anchor="middle" transform="translate(629.931762223004, 141.7142857142857)">75.4%</text>
<text x="1024" y="141.7142857142857">2022-01-27</text>
</g><g>
<rect class="esm" x="32" y="182.85714285714283" height="18.285714285714285" width="83.0415068015347"></rect>
<rect class="dual" x="115.0415068015347" y="182.85714285714283" height="18.285714285714285" width="34.65643529822113"></rect>
<rect class="faux" x="149.69794209975583" y="182.85714285714283" height="18.285714285714285" width="132.43111266131845"></rect>
<rect class="cjs" x="282.12905476107426" y="182.85714285714283" height="18.285714285714285" width="709.8709452389257"></rect>
<text text-anchor="middle" transform="translate(73.52075340076735, 191.99999999999997) rotate(-45)">8.7%</text>
<text text-anchor="middle" transform="translate(132.36972445064526, 191.99999999999997) rotate(-45)">3.6%</text>
<text text-anchor="middle" transform="translate(215.91349843041507, 191.99999999999997)">13.8%</text>
<text text-anchor="middle" transform="translate(637.0645273805371, 191.99999999999997)">73.9%</text>
<text x="1024" y="191.99999999999997">2022-08-01</text>
</g><g>
<rect class="esm" x="32" y="233.1428571428571" height="18.285714285714285" width="86.52862362971985"></rect>
<rect class="dual" x="118.52862362971985" y="233.1428571428571" height="18.285714285714285" width="36.08143379154342"></rect>
<rect class="faux" x="154.61005742126326" y="233.1428571428571" height="18.285714285714285" width="131.12928484426658"></rect>
<rect class="cjs" x="285.73934226552984" y="233.1428571428571" height="18.285714285714285" width="706.2606577344701"></rect>
<text text-anchor="middle" transform="translate(75.26431181485992, 242.28571428571425) rotate(-45)">9.0%</text>
<text text-anchor="middle" transform="translate(136.56934052549155, 242.28571428571425) rotate(-45)">3.8%</text>
<text text-anchor="middle" transform="translate(220.17469984339655, 242.28571428571425)">13.7%</text>
<text text-anchor="middle" transform="translate(638.8696711327649, 242.28571428571425)">73.6%</text>
<text x="1024" y="242.28571428571425">2022-11-04</text>
</g><g>
<rect class="esm" x="32" y="283.4285714285714" height="18.285714285714285" width="89.61051766639277"></rect>
<rect class="dual" x="121.61051766639277" y="283.4285714285714" height="18.285714285714285" width="40.230073952341826"></rect>
<rect class="faux" x="161.8405916187346" y="283.4285714285714" height="18.285714285714285" width="135.04683648315532"></rect>
<rect class="cjs" x="296.8874281018899" y="283.4285714285714" height="18.285714285714285" width="695.1125718981101"></rect>
<text text-anchor="middle" transform="translate(76.80525883319638, 292.57142857142856) rotate(-45)">9.3%</text>
<text text-anchor="middle" transform="translate(141.72555464256368, 292.57142857142856) rotate(-45)">4.2%</text>
<text text-anchor="middle" transform="translate(229.36400986031225, 292.57142857142856)">14.1%</text>
<text text-anchor="middle" transform="translate(644.4437140509449, 292.57142857142856)">72.4%</text>
<text x="1024" y="292.57142857142856">2023-02-06</text>
</g><g>
<rect class="esm" x="32" y="333.71428571428567" height="18.285714285714285" width="97.53846153846153"></rect>
<rect class="dual" x="129.53846153846155" y="333.71428571428567" height="18.285714285714285" width="58.92307692307692"></rect>
<rect class="faux" x="188.46153846153845" y="333.71428571428567" height="18.285714285714285" width="122.46153846153845"></rect>
<rect class="cjs" x="310.9230769230769" y="333.71428571428567" height="18.285714285714285" width="681.0769230769231"></rect>
<text text-anchor="middle" transform="translate(80.76923076923077, 342.85714285714283) rotate(-45)">10.2%</text>
<text text-anchor="middle" transform="translate(159, 342.85714285714283) rotate(-45)">6.1%</text>
<text text-anchor="middle" transform="translate(249.69230769230768, 342.85714285714283) rotate(-45)">12.8%</text>
<text text-anchor="middle" transform="translate(651.4615384615385, 342.85714285714283)">70.9%</text>
<text x="1024" y="342.85714285714283">2023-05-29</text>
</g>
<g>
<rect class="esm" x="32" y="383.99999999999994" height="18.285714285714285" width="96"></rect>
<rect class="dual" x="160" y="383.99999999999994" height="18.285714285714285" width="96"></rect>
<rect class="faux" x="288" y="383.99999999999994" height="18.285714285714285" width="96"></rect>
<rect class="cjs" x="416" y="383.99999999999994" height="18.285714285714285" width="96"></rect>
<text text-anchor="middle" transform="translate(80, 393.1428571428571)">esm</text>
<text text-anchor="middle" transform="translate(208, 393.1428571428571)">dual</text>
<text text-anchor="middle" transform="translate(336, 393.1428571428571)">faux</text>
<text text-anchor="middle" transform="translate(464, 393.1428571428571)">cjs</text></g>
</g>
</svg>
